#!OML:ASF \\sashay\E\Suitcase\Project 1\Capture day 1\Session 1\Male1.ASF
:FULLY-SPECIFIED
:DEGREES
747
root 0.283444 17.0437 25.0153 4.81984 -0.65236 0.706819
lowerback 3.34182 0.730524 -3.5939
upperback -0.945995 0.877933 2.23832
thorax -2.942 0.524138 4.28297
lowerneck -14.1839 -0.29904 -4.2796
upperneck 17.4154 0.15927 2.01426
head 7.70479 -0.0118531 1.38823
rclavicle -1.41137e-014 -1.27222e-014
rhumerus -45.7484 3.30509 -82.5784
rradius 19.4661
rwrist -41.7376
rhand -21.0409 7.80139
rfingers 7.12502
rthumb 5.33489 -22.1115
lclavicle -1.41137e-014 -1.27222e-014
lhumerus -43.7303 6.49581 81.7783
lradius 35.5128
lwrist -4.40909
lhand -0.965418 43.8168
lfingers 7.12502
lthumb 24.6654 72.2472
rfemur -5.64456 2.12395 25.6912
rtibia 23.9846
rfoot -20.7591 -9.94623
rtoes 13.8375
lfemur -31.3109 -0.07287 -19.8342
ltibia 42.0335
lfoot -18.2726 -0.509806
ltoes -3.43882
748
root 0.269915 17.0603 25.0879 5.22529 -0.908835 0.266994
lowerback 3.21924 0.953361 -3.16779
upperback -1.13699 1.20016 2.31161
thorax -3.09521 0.684539 4.09838
lowerneck -14.1365 -0.50339 -4.61655
upperneck 17.4276 -0.104539 2.30355
head 7.70956 -0.132022 1.5114
rclavicle 1.27222e-014 1.43125e-014
rhumerus -45.907 4.38143 -83.4442
rradius 19.5807
rwrist -43.4835
rhand -21.3753 8.0974
rfingers 7.12502
rthumb 5.01199 -21.8233
lclavicle 1.27222e-014 1.43125e-014
lhumerus -43.7438 6.45873 81.8431
lradius 35.4761
lwrist -5.04118
lhand -0.869837 43.8482
lfingers 7.12502
lthumb 24.757 72.266
rfemur -5.28347 2.97109 26.3101
rtibia 23.0352
rfoot -20.0586 -10.6704
rtoes 14.4967
lfemur -31.7924 0.000892648 -19.3549
ltibia 39.9548
lfoot -18.9064 -0.656521
ltoes -3.74459
749
root 0.265878 17.0603 25.156 5.67855 -1.09713 -0.585986
lowerback 3.03598 0.943869 -2.37514
upperback -1.22026 1.23119 2.50407
thorax -3.06691 0.687333 3.84968
lowerneck -13.8635 -0.503628 -4.69087
upperneck 16.9856 -0.123563 2.42576
head 7.51626 -0.131381 1.55759
rclavicle 5.61567e-015 -7.95139e-016
rhumerus -45.7903 5.3469 -84.1426
rradius 19.6517
rwrist -44.0204
rhand -21.4632 8.15031
rfingers 7.12502
rthumb 4.92708 -21.7724
lclavicle 5.61567e-015 -7.95139e-016
lhumerus -43.6264 6.46919 81.7624
lradius 35.5293
lwrist -5.13841
lhand -0.410831 43.9189
lfingers 7.12502
lthumb 25.1968 72.2756
rfemur -5.15359 3.28834 27.2765
rtibia 22.2398
rfoot -19.5599 -10.8657
rtoes 16.286
lfemur -32.228 0.0495831 -18.3957
ltibia 37.5929
lfoot -18.5918 -1.02075
ltoes -2.92348
750
root 0.267465 17.0706 25.243 6.02917 -1.30256 -1.10898
lowerback 2.62924 1.05234 -1.83837
upperback -1.29637 1.40589 2.62327
thorax -2.92036 0.764259 3.66522
lowerneck -13.738 -0.518524 -4.73541
upperneck 16.9185 -0.147332 2.46423
head 7.47306 -0.14187 1.57426
rclavicle -1.26725e-014 -1.11319e-014
rhumerus -45.8013 5.52748 -84.125
rradius 19.6117
rwrist -43.6103
rhand -21.3196 7.85137
rfingers 7.12502
rthumb 5.06573 -22.0681
lclavicle -1.26725e-014 -1.11319e-014
lhumerus -43.4861 5.95698 82.1232
lradius 35.273
lwrist -4.51948
lhand -1.05091 43.5251
lfingers 7.12502
lthumb 24.5834 71.9667
rfemur -4.72651 3.50901 27.8278
rtibia 21.2722
rfoot -19.1311 -11.0648
rtoes 15.7708
lfemur -32.5011 -0.18221 -17.7472
ltibia 35.558
lfoot -17.9852 -1.10145
ltoes -1.3764
751
root 0.291942 17.1069 25.3986 5.39671 -1.2572 1.64665
lowerback 2.4146 0.962569 -4.22975
upperback -0.955452 1.18255 1.77138
thorax -2.46413 0.671847 4.15025
lowerneck -13.715 -0.432509 -4.62458
upperneck 16.741 -0.0388179 2.38641
head 7.40659 -0.0886676 1.54005
rclavicle 5.81445e-015 2.46493e-014
rhumerus -44.9073 3.0882 -82.9804
rradius 19.2151
rwrist -46.0639
rhand -24.6469 8.86298
rfingers 7.12502
rthumb 1.85256 -21.1087
lclavicle 5.81445e-015 2.46493e-014
lhumerus -43.7501 5.8491 82.1916
lradius 35.7614
lwrist -4.63265
lhand -1.34808 43.7929
lfingers 7.12502
lthumb 24.2985 72.2729
rfemur -2.98694 1.42729 24.4289
rtibia 20.2685
rfoot -19.0925 -9.403
rtoes 16.435
lfemur -31.1253 -0.888344 -21.0099
ltibia 33.3075
lfoot -17.9632 -1.27456
ltoes -1.33941
752
root 0.27712 17.0961 25.4216 6.38478 -1.70359 -0.851442
lowerback 2.49982 1.1559 -1.93517
upperback -1.45337 1.53791 2.4216
thorax -3.01659 0.833319 3.50443
lowerneck -13.8808 -0.480737 -4.68309
upperneck 16.9829 -0.119342 2.56241
head 7.51782 -0.115775 1.60179
rclavicle -9.98893e-015 -1.31198e-014
rhumerus -44.3665 1.56138 -82.2845
rradius 18.8556
rwrist -46.8526
rhand -26.1137 9.52745
rfingers 7.12502
rthumb 0.435904 -20.4519
lclavicle -9.98893e-015 -1.31198e-014
lhumerus -43.7865 5.73243 82.1819
lradius 35.7321
lwrist -4.68849
lhand 0.0406646 44.6677
lfingers 7.12502
lthumb 25.6293 72.9628
rfemur -3.44224 3.21451 27.4142
rtibia 19.1239
rfoot -18.2467 -10.6482
rtoes 14.4924
lfemur -32.5443 -0.636663 -18.0028
ltibia 31.4012
lfoot -16.6846 -1.5319
ltoes -0.172424
753
root 0.272037 17.1066 25.513 6.62099 -1.52902 -1.05119
lowerback 2.17807 1.03411 -1.88178
upperback -1.45357 1.38314 2.55241
thorax -2.82572 0.753825 3.62345
lowerneck -13.6146 -0.555165 -5.05275
upperneck 16.7494 -0.17633 2.68617
head 7.39735 -0.154329 1.69481
rclavicle -1.87355e-014 -1.03368e-014
rhumerus -44.2622 2.03004 -82.3868
rradius 19.0048
rwrist -47.1103
rhand -26.0442 9.03428
rfingers 7.12502
rthumb 0.503045 -20.9449
lclavicle -1.87355e-014 -1.03368e-014
lhumerus -43.7173 5.80486 82.374
lradius 35.6142
lwrist -4.49805
lhand -0.492673 44.0122
lfingers 7.12502
lthumb 25.1184 72.3799
rfemur -2.8078 2.88898 27.6403
rtibia 18.0392
rfoot -17.9249 -10.6077
rtoes 14.7231
lfemur -32.6443 -1.16051 -17.7089
ltibia 29.3711
lfoot -16.2983 -1.6126
ltoes -0.381937
754
root 0.281858 17.114 25.6071 6.74697 -1.92562 -1.61853
lowerback 1.93354 1.11071 -1.22997
upperback -1.41387 1.50884 2.65001
thorax -2.64155 0.802401 3.3549
lowerneck -13.7138 -0.475517 -4.88416
upperneck 16.6923 -0.0679379 2.52611
head 7.39171 -0.10574 1.6253
rclavicle 3.4191e-014 3.37934e-014
rhumerus -44.0756 2.13342 -82.3807
rradius 19.0636
rwrist -47.1827
rhand -25.9976 9.14741
rfingers 7.12502
rthumb 0.548048 -20.8316
lclavicle 3.4191e-014 3.37934e-014
lhumerus -43.8753 5.76258 82.373
lradius 35.9032
lwrist -4.88105
lhand -0.309212 43.557
lfingers 7.12502
lthumb 25.2942 71.8999
rfemur -1.97615 2.86111 28.1636
rtibia 16.6699
rfoot -17.239 -10.4373
rtoes 13.2711
lfemur -32.8459 -1.47914 -16.9689
ltibia 27.9865
lfoot -16.7341 -0.778982
ltoes 0.186982
755
root 0.276872 17.1195 25.6906 6.97851 -2.02409 -1.6792
lowerback 1.88178 1.1245 -1.22246
upperback -1.48607 1.52649 2.56173
thorax -2.6852 0.811431 3.25879
lowerneck -14.1206 -0.44846 -4.31649
upperneck 16.7812 -0.0847904 2.25369
head 7.49262 -0.102292 1.44224
rclavicle -2.48481e-015 1.15295e-014
rhumerus -43.9239 1.89339 -82.2929
rradius 18.8996
rwrist -46.5249
rhand -25.6774 9.52675
rfingers 7.12502
rthumb 0.857281 -20.4513
lclavicle -2.48481e-015 1.15295e-014
lhumerus -43.7537 5.27495 82.4401
lradius 35.9752
lwrist -4.65799
lhand -0.1111 43.6915
lfingers 7.12502
lthumb 25.484 72.0075
rfemur -1.21976 2.9181 28.2575
rtibia 15.3656
rfoot -17.0011 -10.7301
rtoes 11.435
lfemur -33.1849 -1.81605 -16.7905
ltibia 26.4557
lfoot -18.0259 0.379182
ltoes 2.89155
756
root 0.279891 17.1264 25.7769 7.28969 -2.21637 -1.70936
lowerback 1.64995 1.10301 -1.16383
upperback -1.57198 1.49902 2.49507
thorax -2.63776 0.796306 3.16143
lowerneck -14.2683 -0.364843 -4.18812
upperneck 16.962 0.0198897 2.18482
head 7.57433 -0.0516589 1.41122
rclavicle 7.7526e-015 -7.15625e-015
rhumerus -43.7177 1.36443 -81.8938
rradius 18.75
rwrist -45.3676
rhand -25.456 9.30558
rfingers 7.12502
rthumb 1.07115 -20.6715
lclavicle 7.7526e-015 -7.15625e-015
lhumerus -43.6908 5.24919 82.3801
lradius 35.8311
lwrist -4.50668
lhand -0.323361 43.5719
lfingers 7.12502
lthumb 25.2806 71.9167
rfemur -0.665814 2.88703 28.2385
rtibia 14.1806
rfoot -16.686 -10.5785
rtoes 10.8577
lfemur -33.5874 -2.33523 -16.6056
ltibia 25.1174
lfoot -18.4962 1.93615
ltoes 4.36028
